<svg width="15" height="12" viewBox="0 0 15 12" fill="none" xmlns="http://www.w3.org/2000/svg">
<path d="M4.95457 11.5727C9.96482 11.5727 12.7056 7.42129 12.7056 3.82749C12.7056 3.71132 12.7056 3.59349 12.7006 3.47732C13.2342 3.09104 13.6948 2.6128 14.0607 2.06502C13.5622 2.28479 13.034 2.42963 12.4932 2.49485C13.0629 2.15434 13.4895 1.61857 13.6939 0.987126C13.1587 1.30421 12.5729 1.5268 11.9621 1.64515C11.5515 1.20787 11.0082 0.918185 10.4163 0.820967C9.8244 0.723749 9.21695 0.824422 8.68806 1.10739C8.15917 1.39036 7.73834 1.83984 7.49077 2.3862C7.2432 2.93255 7.18269 3.5453 7.31863 4.12953C6.23555 4.07522 5.17597 3.79385 4.20862 3.30368C3.24128 2.8135 2.38777 2.12546 1.70346 1.28419C1.35606 1.88419 1.25004 2.59393 1.40693 3.26926C1.56382 3.9446 1.97186 4.53491 2.54819 4.92032C2.11631 4.90564 1.69394 4.78967 1.31512 4.58176V4.6191C1.31587 5.24765 1.53361 5.85667 1.93155 6.3432C2.32949 6.82974 2.88321 7.16396 3.49912 7.28936C3.26534 7.35376 3.02384 7.38587 2.78136 7.38478C2.61041 7.3853 2.4398 7.36946 2.27187 7.33749C2.44594 7.87856 2.7849 8.35162 3.24126 8.69044C3.69762 9.02925 4.24853 9.21683 4.81682 9.22691C3.85141 9.98517 2.65888 10.3964 1.43129 10.3944C1.21498 10.3953 0.998826 10.3829 0.784058 10.3571C2.03 11.1514 3.47696 11.5732 4.95457 11.5727Z" fill="white"/>
</svg>
