<svg width="13" height="13" viewBox="0 0 13 13" fill="none" xmlns="http://www.w3.org/2000/svg">
<path fill-rule="evenodd" clip-rule="evenodd" d="M4.06253 0.71571C4.71142 0.685838 4.91831 0.679199 6.57125 0.679199C8.22419 0.679199 8.43108 0.686391 9.07942 0.71571C9.72776 0.745029 10.1703 0.848476 10.5575 0.998391C10.963 1.15162 11.3309 1.39116 11.6352 1.70094C11.945 2.00465 12.1839 2.37197 12.3366 2.77801C12.4871 3.16524 12.59 3.60779 12.6198 4.25503C12.6497 4.90503 12.6564 5.11192 12.6564 6.76431C12.6564 8.41724 12.6492 8.62413 12.6198 9.27303C12.5905 9.92026 12.4871 10.3628 12.3366 10.75C12.1839 11.1561 11.9446 11.5241 11.6352 11.8282C11.3309 12.138 10.963 12.377 10.5575 12.5297C10.1703 12.6801 9.72776 12.783 9.08053 12.8129C8.43108 12.8428 8.22419 12.8494 6.57125 12.8494C4.91831 12.8494 4.71142 12.8422 4.06253 12.8129C3.41529 12.7836 2.97274 12.6801 2.58551 12.5297C2.17942 12.377 1.81149 12.1376 1.50734 11.8282C1.19776 11.5243 0.958191 11.1566 0.805336 10.7506C0.655422 10.3634 0.552528 9.92081 0.522656 9.27358C0.492783 8.62358 0.486145 8.41669 0.486145 6.76431C0.486145 5.11137 0.493337 4.90448 0.522656 4.25613C0.551975 3.60779 0.655422 3.16524 0.805336 2.77801C0.958417 2.37201 1.19817 2.00427 1.50789 1.70039C1.81161 1.39088 2.17917 1.15132 2.58495 0.998391C2.97219 0.848476 3.41474 0.745582 4.06197 0.71571H4.06253ZM9.03019 1.81103C8.38848 1.78171 8.19597 1.77562 6.57125 1.77562C4.94653 1.77562 4.75402 1.78171 4.11231 1.81103C3.51874 1.83814 3.19678 1.93716 2.98214 2.02069C2.69836 2.13133 2.49534 2.26243 2.28236 2.47541C2.08047 2.67182 1.9251 2.91093 1.82763 3.1752C1.7441 3.38984 1.64508 3.71179 1.61797 4.30537C1.58866 4.94707 1.58257 5.13958 1.58257 6.76431C1.58257 8.38903 1.58866 8.58154 1.61797 9.22324C1.64508 9.81682 1.7441 10.1388 1.82763 10.3534C1.925 10.6173 2.08044 10.8568 2.28236 11.0532C2.47874 11.2551 2.71827 11.4106 2.98214 11.5079C3.19678 11.5915 3.51874 11.6905 4.11231 11.7176C4.75402 11.7469 4.94597 11.753 6.57125 11.753C8.19653 11.753 8.38848 11.7469 9.03019 11.7176C9.62376 11.6905 9.94572 11.5915 10.1604 11.5079C10.4441 11.3973 10.6472 11.2662 10.8601 11.0532C11.0621 10.8568 11.2175 10.6173 11.3149 10.3534C11.3984 10.1388 11.4974 9.81682 11.5245 9.22324C11.5538 8.58154 11.5599 8.38903 11.5599 6.76431C11.5599 5.13958 11.5538 4.94707 11.5245 4.30537C11.4974 3.71179 11.3984 3.38984 11.3149 3.1752C11.2042 2.89141 11.0731 2.68839 10.8601 2.47541C10.6637 2.27354 10.4246 2.11817 10.1604 2.02069C9.94572 1.93716 9.62376 1.83814 9.03019 1.81103ZM5.79402 8.64018C6.22808 8.82087 6.71142 8.84525 7.16147 8.70917C7.61152 8.57309 8.00036 8.28498 8.26159 7.89406C8.52281 7.50313 8.64022 7.03364 8.59374 6.56577C8.54727 6.0979 8.33981 5.66067 8.00678 5.32877C7.79449 5.11661 7.53779 4.95416 7.25518 4.85311C6.97257 4.75206 6.67106 4.71493 6.37238 4.74439C6.07369 4.77385 5.78525 4.86917 5.52782 5.02348C5.2704 5.1778 5.05039 5.38727 4.88363 5.63682C4.71688 5.88637 4.60753 6.16978 4.56345 6.46667C4.51938 6.76355 4.54168 7.06651 4.62874 7.35374C4.71581 7.64097 4.86547 7.90532 5.06697 8.12777C5.26846 8.35021 5.51677 8.52522 5.79402 8.64018ZM4.35959 4.55265C4.65003 4.26221 4.99483 4.03182 5.37431 3.87463C5.75379 3.71745 6.16051 3.63655 6.57125 3.63655C6.98199 3.63655 7.38871 3.71745 7.76819 3.87463C8.14767 4.03182 8.49247 4.26221 8.78291 4.55265C9.07335 4.84308 9.30374 5.18789 9.46092 5.56736C9.61811 5.94684 9.69901 6.35356 9.69901 6.76431C9.69901 7.17505 9.61811 7.58177 9.46092 7.96125C9.30374 8.34072 9.07335 8.68552 8.78291 8.97596C8.19634 9.56253 7.40078 9.89206 6.57125 9.89206C5.74172 9.89206 4.94616 9.56253 4.35959 8.97596C3.77302 8.3894 3.44349 7.59384 3.44349 6.76431C3.44349 5.93477 3.77302 5.13921 4.35959 4.55265ZM10.3927 4.10235C10.4647 4.03445 10.5223 3.95281 10.5621 3.86225C10.602 3.77169 10.6233 3.67405 10.6247 3.57512C10.6262 3.47619 10.6077 3.37797 10.5705 3.28629C10.5333 3.1946 10.4781 3.11131 10.4082 3.04135C10.3382 2.97139 10.2549 2.91617 10.1632 2.87897C10.0715 2.84178 9.97333 2.82336 9.8744 2.8248C9.77546 2.82624 9.67783 2.84752 9.58727 2.88737C9.4967 2.92722 9.41506 2.98484 9.34717 3.05682C9.21512 3.19679 9.14283 3.38271 9.14564 3.57512C9.14844 3.76752 9.22612 3.95126 9.36219 4.08732C9.49825 4.22339 9.68199 4.30107 9.8744 4.30387C10.0668 4.30668 10.2527 4.23439 10.3927 4.10235Z" fill="white"/>
</svg>
