<svg width="13" height="12" viewBox="0 0 13 12" fill="none" xmlns="http://www.w3.org/2000/svg">
<path d="M3.51224 11.743H1.10378V3.98698H3.51224V11.743ZM2.30655 2.929C1.53651 2.929 0.911682 2.29089 0.911682 1.52085C0.911682 1.15091 1.05864 0.796114 1.32023 0.534525C1.58182 0.272936 1.93661 0.125977 2.30655 0.125977C2.6765 0.125977 3.03129 0.272936 3.29288 0.534525C3.55447 0.796114 3.70143 1.15091 3.70143 1.52085C3.70143 2.29089 3.0766 2.929 2.30655 2.929ZM12.5262 11.743H10.1231V7.96747C10.1231 7.06756 10.1049 5.91374 8.871 5.91374C7.61885 5.91374 7.42676 6.89123 7.42676 7.90274V11.743H5.02079V3.98698H7.3305V5.04496H7.36411C7.68565 4.43548 8.47104 3.79239 9.6427 3.79239C12.0802 3.79239 12.5283 5.39761 12.5283 7.48246V11.743H12.5262Z" fill="white"/>
</svg>
